<?xml version="1.0" encoding="UTF-8"?>
<svg width="752pt" height="752pt" version="1.1" viewBox="0 0 752 752" xmlns="http://www.w3.org/2000/svg">
 <g>
  <path d="m472.2 387.43v-18.832c0-0.80078-0.30859-1.5-0.73828-2.1055 6.2422-7.5469 30.688-40.387 30.688-92.004 0-71.508-79.461-93.719-108.41-93.719-28.945 0-108.41 22.211-108.41 93.719 0 54.527 27.82 88.699 31.66 93.156-0.085938 0.3125-0.19141 0.61328-0.19141 0.95312v20.227c-50.484 9.293-87.566 55.539-83.441 108.74l5.5391 71.422c0.29688 3.8398 3.4961 6.8008 7.3477 6.8008h219.39c40.402 0 73.152-32.789 73.152-73.238v-42.215c0-38.234-29.27-69.582-66.594-72.906zm59.195 84.23v30.891c0 36.305-29.496 65.84-65.75 65.84l-108.14 0.011719v-51.441c0-2.2461 1.8242-4.0703 4.0703-4.0703h85.75c4.5195 0 8.5859-2.9062 10.359-7.3945 2.8945-7.3438 16.094-6.7734 16.273-6.7617 2.0039 0.09375 3.7891-1.418 3.9219-3.457 0.12891-2.0391-1.418-3.7969-3.457-3.9258-0.75-0.046875-18.699-1.0547-23.621 11.43-0.51953 1.3086-1.707 2.7109-3.4805 2.7109h-85.746c-6.3281 0-11.473 5.1445-11.473 11.469v2.2656l-25.879 4.5898c-14.918 2.6445-27.777 11.211-36.016 23.273l-4.2812-33.488c-1.8125-14.902-1.8906-29.336-0.23047-42.906 5.2695-43.051 22.07-50.617 22.484-50.793 1.8828-0.72266 2.8477-2.8242 2.1562-4.7266-0.69922-1.9141-2.8242-2.9062-4.7422-2.207-0.86719 0.31641-21.305 8.3047-27.242 56.832-1.7344 14.164-1.6562 29.203 0.23438 44.719l5.6367 44.098c-0.84375 2.2188-1.5742 4.4961-2.1328 6.8477-0.23828 1.0078-0.23438 1.9922-0.11719 2.9492l-33.695 0.003906-5.5391-71.422c-2.0742-26.762 6.8164-52.34 25.035-72.027 18.188-19.652 42.938-30.473 69.695-30.473h130.18c22.461 0 42.309 11.352 54.176 28.609-8.2852 4.2695-13.957 12.895-13.957 22.855 0 14.141 11.414 25.605 25.531 25.699zm-243.92 96.355c-0.19531-0.25-0.25781-0.53125-0.1875-0.83984 0.625-2.6328 1.4844-5.1602 2.5156-7.5977 6.25-14.762 19.57-25.613 35.711-28.477l24.586-4.3594v41.648h-61.852c-0.31641 0-0.57812-0.12891-0.77344-0.375zm55.535-343.68c17.027-3.4102 34.312-5.1172 51.59-5.1172 17.926 0 35.844 1.8359 53.484 5.5 25.797 5.3633 44.289 28.098 44.289 54.445v0.625c0 27.188-19.656 50.387-46.473 54.855-16.969 2.8242-34.113 4.2383-51.258 4.2383-16.523 0-33.051-1.3125-49.418-3.9375l-3.3242-0.53125c-26.969-4.3281-46.801-27.598-46.801-54.91 0-26.504 18.703-49.324 44.691-54.527zm-18.809 162.76v-14.801h140.59v14.801z"/>
  <path d="m379.7 531.39c0 4.0859-3.3164 7.3984-7.4023 7.3984-4.0859 0-7.3984-3.3125-7.3984-7.3984 0-4.0859 3.3125-7.3984 7.3984-7.3984 4.0859 0 7.4023 3.3125 7.4023 7.3984"/>
  <path d="m346.4 416.7c0 4.0859-3.3125 7.3984-7.3984 7.3984-4.0859 0-7.4023-3.3125-7.4023-7.3984 0-4.0859 3.3164-7.3984 7.4023-7.3984 4.0859 0 7.3984 3.3125 7.3984 7.3984"/>
  <path d="m346.4 450c0 4.0859-3.3125 7.3984-7.3984 7.3984-4.0859 0-7.4023-3.3125-7.4023-7.3984 0-4.0898 3.3164-7.4023 7.4023-7.4023 4.0859 0 7.3984 3.3125 7.3984 7.4023"/>
  <path d="m346.4 483.3c0 4.0859-3.3125 7.3984-7.3984 7.3984-4.0859 0-7.4023-3.3125-7.4023-7.3984s3.3164-7.3984 7.4023-7.3984c4.0859 0 7.3984 3.3125 7.3984 7.3984"/>
  <path d="m379.7 553.59c0 4.0859-3.3164 7.3984-7.4023 7.3984-4.0859 0-7.3984-3.3125-7.3984-7.3984s3.3125-7.3984 7.3984-7.3984c4.0859 0 7.4023 3.3125 7.4023 7.3984"/>
  <path d="m253.16 366.79c6.7812-5.6914 10.594-11.762 8.3984-17.137-1.3906-3.4062-5.6797-7.1641-17.762-6.3086-5.5625-5.3906-13.129-8.7227-21.465-8.7227-16.641 0-30.211 13.234-30.836 29.727-10.039 8.1914-10.5 14.094-9.0547 17.625 1.2461 3.0469 4.7812 6.4766 14.395 6.4766 1.0312 0 2.1289-0.039063 3.2969-0.12109 0.39844-0.027343 0.85156-0.11719 1.2578-0.15625 5.5117 5.0977 12.855 8.2422 20.938 8.2422 16.609-0.007813 30.156-13.184 30.832-29.625zm1.5508-14.34c0.35547 0.87109-0.48047 2.6992-2.5742 5.0625-0.64453-2.3984-1.543-4.6914-2.7109-6.8203 3.4258 0.28906 5.0469 1.1758 5.2852 1.7578zm-32.379-10.43c12.18 0 22.219 9.3164 23.375 21.199-4.7383 3.5117-11.398 7.4023-20.262 11.023-7.4922 3.0586-14.852 5.1406-21.293 6.1289-3.3164-4.0508-5.3125-9.2227-5.3125-14.855 0-12.957 10.539-23.496 23.492-23.496zm-33.039 37.152c-0.26562-0.65625 0.39062-2.6992 3.2188-5.7188 0.71484 2.6758 1.7695 5.2109 3.1328 7.5508-4.5-0.17969-6.1484-1.3281-6.3516-1.832zm33.039 9.8359c-3.8438 0-7.4648-0.94531-10.672-2.5898 5.3125-1.2539 10.922-3.0156 16.582-5.3242 5.7148-2.3359 11.375-5.1602 16.395-8.2422-3.0898 9.3672-11.914 16.156-22.305 16.156z"/>
  <path d="m230.93 214.49c3.8633 2.2383 7.0859 5.4609 9.3242 9.3242 1.5625 2.6992 5.293 2.6992 6.8594 0 2.2383-3.8633 5.4609-7.0859 9.3242-9.3242 2.6992-1.5625 2.6992-5.293 0-6.8594-3.8633-2.2383-7.0859-5.4609-9.3242-9.3242-1.5625-2.6992-5.293-2.6992-6.8594 0-2.2383 3.8633-5.4609 7.0859-9.3242 9.3242-2.6992 1.5625-2.6992 5.293 0 6.8594z"/>
  <path d="m552.71 361.84c-3.8633-2.2383-7.0859-5.4609-9.3242-9.3242-1.5625-2.6992-5.293-2.6992-6.8594 0-2.2383 3.8633-5.4609 7.0859-9.3242 9.3242-2.6992 1.5625-2.6992 5.293 0 6.8594 3.8633 2.2383 7.0859 5.4609 9.3242 9.3242 1.5625 2.6992 5.293 2.6992 6.8594 0 2.2383-3.8633 5.4609-7.0859 9.3242-9.3242 2.6992-1.5625 2.6992-5.293 0-6.8594z"/>
  <path d="m423.79 405.6h-54.879c-4.2578 0-7.707 3.4492-7.707 7.707v32.68c0 4.2578 3.4492 7.7109 7.707 7.7109h54.879c4.2578 0 7.7109-3.4531 7.7109-7.7109v-32.68c0-4.2578-3.4531-7.707-7.7109-7.707zm0.30859 40.387c0 0.17188-0.13672 0.30859-0.30859 0.30859h-54.879c-0.16797 0-0.30859-0.13672-0.30859-0.30859v-32.68c0-0.16797 0.14063-0.30859 0.30859-0.30859h54.879c0.17188 0 0.30859 0.14062 0.30859 0.30859z"/>
  <path d="m350.86 328.14c1.3945 0.22266 2.7969 0.38281 4.1992 0.58594 2.5977 0.375 5.1953 0.75 7.8008 1.0508 0.019531 0.003906 0.039062 0.003906 0.058593 0.007812 0 0-0.003906 0-0.003906-0.003906-16.562-10.508-27.605-28.957-27.605-49.977 0-5.8633 0.88672-11.516 2.4805-16.867 27.359-0.82422 43.477-10.699 52.785-20.637 8.6055 5.8398 25.289 11.984 57.352 12.164 3.6641 7.6953 5.7773 16.266 5.7773 25.34 0 21.012-11.035 39.453-27.582 49.961 2.6094-0.30078 5.2148-0.65234 7.8164-1.0312 1.9727-0.28516 3.9492-0.53516 5.918-0.86328 0.29688-0.050782 0.57813-0.13281 0.87109-0.1875 12.543-12.105 20.375-29.066 20.375-47.879 0-19.504-8.457-36.977-21.82-49.152-0.17578-0.16016-0.32812-0.33984-0.50391-0.49609-2.5508-0.49609-5.1055-0.98438-7.668-1.3945-1.875-0.30078-3.7578-0.52344-5.6367-0.77734-1.0586-0.14062-2.1172-0.28516-3.1758-0.41406-7.0469-0.84766-14.117-1.3633-21.199-1.5664-4.75-0.13672-9.5-0.14062-14.25 0.015625-6.7383 0.22266-13.465 0.75391-20.172 1.5625-0.38672 0.046875-0.76953 0.09375-1.1562 0.14062-2.5664 0.32422-5.1289 0.66797-7.6836 1.0781-2.5312 0.40625-5.0586 0.83203-7.5742 1.3203-0.19922 0.17969-0.375 0.38281-0.57422 0.56641-13.34 12.18-21.781 29.633-21.781 49.117 0 18.84 7.8555 35.816 20.426 47.93z"/>
 </g>
</svg>
