<?xml version="1.0" encoding="UTF-8"?>
<svg width="752pt" height="752pt" version="1.1" viewBox="0 0 752 752" xmlns="http://www.w3.org/2000/svg">
 <g>
  <path d="m560.7 196.04h-369.39c-15.676 0-28.414 12.738-28.414 28.414v255.73c0 15.676 12.738 28.414 28.414 28.414h138.33l-8.0977 28.414-26.047 0.003906c-5.2109 0-9.4727 4.2617-9.4727 9.4727 0 5.2109 4.2617 9.4727 9.4727 9.4727h161.02c5.2109 0 9.4727-4.2617 9.4727-9.4727 0-5.2109-4.2617-9.4727-9.4727-9.4727h-26l-8.0977-28.414h138.29c15.676 0 28.414-12.738 28.414-28.414v-255.73c0-15.676-12.738-28.418-28.414-28.418zm-378.87 28.418c0-5.2109 4.2617-9.4727 9.4727-9.4727h369.39c5.2109 0 9.4727 4.2617 9.4727 9.4727v217.85h-388.34zm228.98 312.56h-69.617l8.0977-28.414h53.371zm159.36-56.832c0 5.2109-4.2617 9.4727-9.4727 9.4727h-369.39c-5.2109 0-9.4727-4.2617-9.4727-9.4727v-18.941h388.34z"/>
  <path d="m448.98 255.66c-3.6953-3.6953-9.707-3.6953-13.402 0-3.6953 3.6953-3.6953 9.707 0 13.402l59.625 59.578-59.578 59.621c-3.6953 3.6953-3.6953 9.707 0 13.402 1.8477 1.8008 4.2617 2.75 6.6797 2.75 2.4141 0 4.832-0.94531 6.6758-2.793l66.301-66.301c1.8008-1.7539 2.793-4.1719 2.793-6.6797 0-2.5117-0.99609-4.9258-2.793-6.6758z"/>
  <path d="m316.38 255.66c-3.6953-3.6953-9.707-3.6953-13.402 0l-66.301 66.301c-1.7539 1.7539-2.75 4.168-2.75 6.6797s0.99609 4.9258 2.793 6.6758l66.301 66.301c1.8516 1.8477 4.2656 2.7969 6.6797 2.7969 2.4141 0 4.832-0.94531 6.6758-2.793 3.6953-3.6953 3.6953-9.707 0-13.402l-59.574-59.578 59.625-59.625c3.6914-3.6953 3.6914-9.6602-0.046875-13.355z"/>
  <path d="m397.55 253.25c-5.0195-1.4219-10.277 1.4688-11.699 6.4883l-37.887 132.6c-1.4219 5.0195 1.4688 10.277 6.4883 11.699 0.85156 0.28125 1.7539 0.37891 2.6055 0.37891 4.1211 0 7.9102-2.6992 9.0938-6.8672l37.887-132.6c1.4648-5.0234-1.4688-10.277-6.4883-11.699z"/>
 </g>
</svg>
