<?xml version="1.0" encoding="UTF-8"?>
<svg width="752pt" height="752pt" version="1.1" viewBox="0 0 752 752" xmlns="http://www.w3.org/2000/svg">
 <g>
  <path d="m235.41 294.61c0-4.0859 3.3125-7.4023 7.4023-7.4023 4.0859 0 7.3984 3.3164 7.3984 7.4023v7.3984h14.801v-7.3984c0-7.9336-4.2344-15.262-11.102-19.227s-15.332-3.9648-22.199 0c-6.8672 3.9648-11.098 11.293-11.098 19.227v7.3984h14.801z"/>
  <path d="m309.4 294.61c0-4.0859 3.3164-7.4023 7.4023-7.4023 4.0859 0 7.3984 3.3164 7.3984 7.4023v7.3984h14.801v-7.3984c0-7.9336-4.2305-15.262-11.102-19.227-6.8672-3.9648-15.328-3.9648-22.199 0-6.8672 3.9648-11.098 11.293-11.098 19.227v7.3984h14.801z"/>
  <path d="m265.01 324.2h-14.801v7.3984c0 10.578 5.6406 20.348 14.801 25.637 9.1562 5.2852 20.438 5.2852 29.598 0 9.1562-5.2891 14.797-15.059 14.797-25.637v-7.3984h-14.797v7.3984c0 5.2891-2.8203 10.176-7.4023 12.816-4.5781 2.6445-10.219 2.6445-14.797 0-4.5781-2.6406-7.3984-7.5273-7.3984-12.816z"/>
  <path d="m583.19 442.6c-0.011718-9.8086-3.9102-19.211-10.848-26.148-6.9375-6.9336-16.34-10.836-26.148-10.848h-156.24c-9.6562-9.4648-22.633-14.777-36.156-14.801h-36.996v-8.1406c4.1562-1.9102 8.1641-4.1367 11.98-6.6602h69.414v-103.59c0-42.301-22.566-81.383-59.195-102.54-36.633-21.148-81.766-21.148-118.39 0-36.633 21.152-59.199 60.234-59.199 102.54v103.59h69.418c3.8164 2.5234 7.8203 4.75 11.98 6.6602v8.1406h-37c-13.734 0.015625-26.898 5.4766-36.609 15.188-9.7109 9.7109-15.172 22.879-15.188 36.609v148c0 1.9609 0.77734 3.8438 2.1641 5.2305 1.3906 1.3867 3.2734 2.168 5.2344 2.168h414.38c5.8867 0 11.535-2.3398 15.699-6.5 4.1602-4.1641 6.5-9.8125 6.5-15.699v-22.199h-14.801zm-14.801 0 0.003906 111h-207.19v-111c0-5.8867 2.3359-11.531 6.5-15.695 4.1641-4.1641 9.8086-6.5039 15.699-6.5039h162.79c5.8867 0 11.535 2.3398 15.695 6.5039 4.1641 4.1641 6.5039 9.8086 6.5039 15.695zm-362.58-184.99h147.99v44.398c0 26.438-14.102 50.867-36.996 64.082-22.895 13.219-51.102 13.219-73.996 0-22.898-13.215-37-37.645-37-64.082zm162.79 29.598h7.3984c4.0898 0 7.4023 3.3164 7.4023 7.4023 0 4.0859-3.3125 7.3984-7.4023 7.3984h-7.3984zm-22.797 74c11.219-12.465 18.664-27.863 21.457-44.398h8.7383c2.5273-0.027344 5.0312-0.48438 7.4023-1.3633v45.762zm-66-192.39c27.469 0.03125 53.801 10.953 73.223 30.375s30.344 45.754 30.375 73.223v1.3633-0.003906c-2.3711-0.875-4.875-1.3359-7.4023-1.3594h-7.3984v-22.199c0-1.9648-0.78125-3.8438-2.168-5.2344-1.3867-1.3867-3.2695-2.1641-5.2305-2.1641h-162.79c-4.0898 0-7.4023 3.3125-7.4023 7.3984v22.199h-7.3984c-2.5273 0.023438-5.0312 0.48438-7.3984 1.3594v-1.3594c0.027343-27.469 10.953-53.801 30.375-73.223 19.422-19.422 45.754-30.344 73.219-30.375zm-88.797 133.2h-7.3984c-4.0859 0-7.3984-3.3125-7.3984-7.3984 0-4.0859 3.3125-7.4023 7.3984-7.4023h7.3984zm-14.797 13.438c2.3672 0.87891 4.8711 1.3359 7.3984 1.3633h8.7383c2.7969 16.535 10.238 31.934 21.461 44.398h-37.598zm103.59 75.359c7.4961-0.039062 14.957-1.0352 22.199-2.9609v10.359c0 7.9336-4.2305 15.262-11.098 19.227-6.8711 3.9648-15.332 3.9648-22.199 0-6.8711-3.9648-11.102-11.293-11.102-19.227v-10.359c7.2461 1.9258 14.703 2.9219 22.199 2.9609zm-111 51.797c0.011718-9.8086 3.9141-19.211 10.852-26.148 6.9336-6.9336 16.34-10.836 26.148-10.848h37.738c2.2812 11.238 9.6484 20.781 19.938 25.84 10.293 5.0586 22.348 5.0586 32.641 0s17.656-14.602 19.938-25.84h37.738c5.0977 0.007813 10.137 1.0742 14.801 3.1211-6.5938 2.8789-12.203 7.6133-16.145 13.629-3.9453 6.0195-6.0469 13.055-6.0547 20.246v111h-14.801v22.199c0.027344 2.5273 0.48828 5.0312 1.3633 7.3984h-104.96v-96.195h-14.801v96.195h-44.398zm414.38 133.2c0 1.9648-0.77734 3.8438-2.1641 5.2344-1.3906 1.3867-3.2695 2.1641-5.2344 2.1641h-221.99c-4.0859 0-7.3984-3.3125-7.3984-7.3984v-7.3984h236.79z"/>
  <path d="m440.43 503.96-16.965-16.969 16.965-16.965-10.461-10.465-27.434 27.43 27.434 27.43z"/>
  <path d="m499.63 514.43 27.43-27.43-27.43-27.43-10.465 10.465 16.969 16.965-16.969 16.969z"/>
  <path d="m450.38 506.85 14.809-44.398 14.039 4.6836-14.809 44.398z"/>
 </g>
</svg>
